<svg xmlns="http://www.w3.org/2000/svg" viewBox="0 0 739.2 739.2"><defs><style>.cls-1{fill:#ff8e5e;}.cls-2{fill:none;stroke:#0a1930;stroke-linecap:round;stroke-linejoin:round;stroke-width:84px;}</style></defs><g id="Layer_2" data-name="Layer 2"><rect class="cls-1" x="34.8" y="34.8" width="669.6" height="669.6" rx="34.8"/><path class="cls-1" d="M800,200V800H200V200H800m0-69.6H200A69.6,69.6,0,0,0,130.4,200V800A69.6,69.6,0,0,0,200,869.6H800A69.6,69.6,0,0,0,869.6,800V200A69.6,69.6,0,0,0,800,130.4Z" transform="translate(-130.4 -130.4)"/><path class="cls-2" d="M242,242H646c76,0,112,68.4,112,132,0,67-39,126-114,126H541L664.4,758H758" transform="translate(-130.4 -130.4)"/><polyline class="cls-2" points="111.6 627.6 231.6 627.6 231.6 283.2"/></g></svg>